<svg version="1.2" xmlns="http://www.w3.org/2000/svg" viewBox="0 0 103 99" width="100" height="100" fill="#6f43c2">
	<title>Neutral Diet</title>
	<path id="Layer" class="s0" d="m21.4 47.1q3.1 6.8 11 11 1.7 0.9 9.5 6 3.3 2.1 4.7 6.2 0.9 2.4 1.1 7.5 0.4 8.1 0.1 15.9c-0.1 0.9-0.9 1.7-1.8 1.6q-8.6-0.5-15.7-3.8-6.8-3.1-12.7-9.3-13.3-14.4-12.3-35.2 0.7-16.2 11.9-28.6 15.1-16.8 36.2-15.4 10.1 0.6 19.1 5.2 12.9 6.6 19.6 19.5 4.5 8.8 5.4 19.1 1.6 17.9-8.9 32.1-5.9 8-13.6 12.2-8.5 4.5-18.3 4.6c-0.6 0-1.1-0.5-1.1-1.1q-0.5-12.3-0.5-23.1 0-4.5 2.6-7.5 1.4-1.7 6.3-4.1 3.7-1.9 7.4-3.8 4.9-2.5 8.3-6.4 1.9-2.2-1-2-13.9 1.1-23.6 10.4-0.4 0.4-0.3-0.1 0.4-3.8 2.9-6.8 7.5-9.3 15.9-17.9 1.6-1.6 2.5-3.5 0.6-1.2-0.7-1.1-10.6 1.3-16.4 10-4.9 7.5-7 16.3-0.3 1.2-0.7 0.2-0.1-0.2-0.1-0.4 0.3-13.2-1.2-20.1-2-9.2-7.2-16.7-0.8-1.2-1.1 0.2-1.2 7.4-0.1 14.7 0.3 1.7 3.5 12 2 6.5 2.7 12.1 0.7 4.6-2.7 1.5-9.3-8.6-22.6-12.7-2-0.6-1.1 1.3z"/>
</svg>
