<?xml version="1.0" standalone="no"?>
<!DOCTYPE svg PUBLIC "-//W3C//DTD SVG 20010904//EN"
 "http://www.w3.org/TR/2001/REC-SVG-20010904/DTD/svg10.dtd">
<svg version="1.0" xmlns="http://www.w3.org/2000/svg"
 width="700.000000pt" height="700.000000pt" viewBox="0 0 700.000000 700.000000"
 preserveAspectRatio="xMidYMid meet">
<metadata>
Created by potrace 1.14, written by Peter Selinger 2001-2017
</metadata>
<g transform="translate(0.000000,700.000000) scale(0.100000,-0.100000)"
fill="#000000" stroke="none">
<path d="M3248 6665 c-2 -1 -41 -5 -88 -9 -99 -7 -125 -10 -265 -32 -16 -3
-79 -16 -140 -30 -447 -101 -875 -325 -1258 -657 -125 -107 -361 -352 -439
-453 -12 -16 -25 -31 -29 -34 -14 -10 -170 -234 -222 -318 -165 -267 -308
-606 -362 -862 -2 -8 -12 -55 -23 -105 -11 -49 -23 -110 -26 -135 -3 -25 -8
-65 -12 -90 -3 -25 -7 -59 -10 -77 -22 -168 -21 -656 1 -773 2 -8 6 -46 11
-85 4 -38 8 -72 9 -75 1 -3 5 -25 9 -50 90 -540 318 -1036 680 -1475 81 -99
324 -336 432 -421 176 -140 283 -207 500 -315 319 -157 676 -251 1045 -275
113 -8 146 4 174 63 16 34 18 74 19 423 1 512 -11 810 -40 1000 -34 224 -113
397 -243 527 -50 50 -375 273 -539 368 -9 6 -42 27 -73 47 -31 20 -110 67
-175 104 -135 77 -220 134 -314 209 -70 56 -199 184 -227 225 -9 14 -20 27
-23 30 -12 9 -105 154 -133 207 -60 113 -64 163 -12 163 73 0 537 -177 730
-278 343 -180 601 -358 862 -594 71 -64 127 -92 154 -78 50 27 47 100 -16 455
-3 17 -21 98 -40 180 -34 144 -61 239 -175 610 -29 94 -56 184 -60 200 -5 17
-29 100 -53 186 -25 86 -48 181 -52 210 -4 30 -9 63 -11 74 -19 97 -25 479
-11 657 17 211 44 314 77 293 11 -7 118 -164 133 -195 4 -8 21 -37 37 -65 71
-116 191 -380 240 -525 64 -188 120 -412 135 -535 3 -22 7 -49 9 -61 28 -143
48 -528 47 -889 0 -277 2 -310 24 -319 11 -4 19 10 30 52 71 254 139 455 197
582 76 163 105 223 165 328 238 422 498 653 883 787 109 37 338 85 376 77 34
-6 34 -33 2 -98 -41 -82 -95 -151 -223 -284 -159 -165 -352 -371 -420 -449
-17 -19 -34 -39 -40 -45 -41 -46 -156 -177 -177 -201 -14 -16 -45 -53 -69 -81
-24 -28 -55 -64 -69 -80 -79 -92 -263 -320 -289 -358 -49 -71 -99 -177 -120
-257 -36 -134 -33 -176 8 -131 15 16 144 128 187 162 252 197 528 338 854 434
47 14 100 28 119 31 19 3 37 8 40 10 4 2 26 6 51 10 25 4 47 8 50 10 3 2 30 6
60 10 29 3 56 8 59 9 3 2 47 7 96 11 50 4 92 8 95 8 17 4 90 -15 91 -23 1 -6
2 -16 3 -22 5 -29 -33 -79 -133 -178 -184 -183 -288 -252 -696 -460 -359 -183
-434 -222 -465 -241 -133 -82 -173 -112 -227 -166 -101 -102 -173 -256 -190
-405 -14 -129 -1 -1093 22 -1591 8 -178 12 -182 189 -173 67 4 133 8 146 11
14 2 52 7 85 10 96 9 293 52 418 90 417 126 759 330 1074 643 124 122 172 177
282 317 72 92 241 337 241 350 0 3 11 23 25 45 119 188 285 611 331 843 13 67
35 187 40 222 3 22 7 51 9 64 20 120 28 540 13 706 -43 482 -161 905 -363
1300 -73 144 -81 157 -173 300 -393 609 -1012 1058 -1757 1275 -61 18 -117 33
-125 35 -8 2 -26 6 -40 9 -28 6 -48 10 -165 31 -113 20 -163 27 -300 41 -60 6
-451 14 -457 9z"/>
</g>
</svg>
